<svg xmlns="http://www.w3.org/2000/svg" version="1.1" xmlns:xlink="http://www.w3.org/1999/xlink" xmlns:svgjs="http://svgjs.dev/svgjs" width="2000" height="560" viewBox="0 0 2000 560"><g transform="matrix(1,0,0,1,-1.2121212121212466,-0.2252476864770756)"><svg viewBox="0 0 396 111" data-background-color="#1f2d5a" preserveAspectRatio="xMidYMid meet" height="560" width="2000" xmlns="http://www.w3.org/2000/svg" xmlns:xlink="http://www.w3.org/1999/xlink"><g id="tight-bounds" transform="matrix(1,0,0,1,0.2400000000000091,0.04464730928384597)"><svg viewBox="0 0 395.52 110.91070538143234" height="110.91070538143234" width="395.52"><g><svg viewBox="0 0 397.4975999999999 111.46525890833948" height="110.91070538143234" width="395.52"><g><rect width="397.4975999999999" height="5.1583226784602685" x="0" y="35.60383246521554" fill="#fbfbfb" opacity="1" stroke-width="0" stroke="transparent" fill-opacity="1" class="rect-yte-0" data-fill-palette-color="secondary" rx="1%" id="yte-0" data-palette-color="#fbfbfb"></rect></g><g transform="matrix(1,0,0,1,0.9887999999999693,54.2656176527341)"><svg viewBox="0 0 395.52 57.19964125560538" height="57.19964125560538" width="395.52"><g id="textblocktransform"><svg viewBox="0 0 395.52 57.19964125560538" height="57.19964125560538" width="395.52" id="textblock"><g><svg viewBox="0 0 395.52 57.19964125560538" height="57.19964125560538" width="395.52"><g transform="matrix(1,0,0,1,0,0)"><svg width="395.52" viewBox="1.6 -38.55 267.58 38.699999999999996" height="57.19964125560538" data-palette-color="#fbfbfb"><path d="M6.7 0L6.7 0Q4.1 0 2.85-1.55 1.6-3.1 1.6-5.7L1.6-5.7 1.6-29Q1.6-32.8 3.68-34.6 5.75-36.4 8.65-36.4L8.65-36.4Q11.4-36.4 13.33-34.6 15.25-32.8 16.15-28.9L16.15-28.9 20.05-11.95 21.35-11.95 25.25-28.9Q26.15-32.8 28.13-34.6 30.1-36.4 32.85-36.4L32.85-36.4Q35.75-36.4 37.83-34.6 39.9-32.8 39.9-29L39.9-29 39.9-5.7Q39.9-3.1 38.63-1.55 37.35 0 34.75 0L34.75 0Q32.25 0 30.9-1.55 29.55-3.1 29.55-5.7L29.55-5.7 29.55-19.15Q29.55-19.65 29.43-20.08 29.3-20.5 28.75-20.5L28.75-20.5Q28.3-20.5 28.1-20.08 27.9-19.65 27.8-19.15L27.8-19.15 25.9-6.55Q25.55-4.5 25.08-3.03 24.6-1.55 23.6-0.78 22.6 0 20.7 0L20.7 0Q18.85 0 17.82-0.78 16.8-1.55 16.32-3.03 15.85-4.5 15.55-6.55L15.55-6.55 13.6-19.15Q13.55-19.65 13.35-20.08 13.15-20.5 12.65-20.5L12.65-20.5Q12.15-20.5 12-20.08 11.85-19.65 11.85-19.15L11.85-19.15 11.85-5.7Q11.85-3.1 10.53-1.55 9.2 0 6.7 0ZM50.25 0L50.25 0Q46.55 0 44.47-2 42.4-4 42.4-7.6L42.4-7.6Q42.4-11.2 44.8-12.83 47.2-14.45 50.95-14.45L50.95-14.45Q53.15-14.45 54.95-14.15 56.75-13.85 58.2-13.3L58.2-13.3 58.35-13.3 58.35-14.05Q58.35-15.2 57.5-15.88 56.65-16.55 55.35-16.5L55.35-16.5Q54.1-16.5 53.22-16.35 52.35-16.2 51.05-15.85L51.05-15.85Q48.65-15.25 46.9-15.95 45.15-16.65 44.5-18.7L44.5-18.7Q43.9-20.85 44.77-22.3 45.65-23.75 47.45-24.55L47.45-24.55Q49-25.3 50.92-25.8 52.85-26.3 55.1-26.3L55.1-26.3Q61.65-26.3 64.72-23.13 67.8-19.95 67.8-12.5L67.8-12.5 67.8-4.75Q67.8-2.7 66.55-1.35 65.3 0 63.1 0L63.1 0Q60.7 0 59.52-1.35 58.35-2.7 58.35-4.65L58.35-4.65 58.35-5.8 57.35-5.8Q57.35-4.5 56.87-3.15 56.4-1.8 54.92-0.9 53.45 0 50.25 0ZM50.75-10.95L50.75-10.95Q50.75-10.1 51.37-9.75 52-9.4 54.1-9.4L54.1-9.4Q56-9.4 56.75-9.75 57.5-10.1 57.5-10.95L57.5-10.95Q57.5-11.75 56.75-12.08 56-12.4 54.1-12.4L54.1-12.4Q52-12.4 51.37-12.08 50.75-11.75 50.75-10.95ZM75.34 0L75.34 0Q73 0 71.7-1.35 70.39-2.7 70.39-4.75L70.39-4.75 70.39-21.15Q70.39-23.3 71.7-24.73 73-26.15 75.34-26.15L75.34-26.15Q77.7-26.15 78.95-24.73 80.2-23.3 80.2-21.25L80.2-21.25 80.2-20.2 81.15-20.2Q81.34-22.85 83.15-24.55 84.95-26.25 87.4-26.25L87.4-26.25Q89.84-26.25 91.27-24.75 92.7-23.25 92.7-20.75L92.7-20.75Q92.7-18.4 91.34-16.85 90-15.3 87.9-15.3L87.9-15.3Q86.15-15.3 84.97-16.13 83.8-16.95 83.25-18.05L83.25-18.05Q81.65-18.25 80.92-17.73 80.2-17.2 80.2-15.65L80.2-15.65 80.2-4.75Q80.2-2.7 78.95-1.35 77.7 0 75.34 0ZM107.79 0L107.79 0Q104.44-0.5 103.44-3.08 102.44-5.65 103.84-9.6L103.84-9.6 110.44-28.35Q111.34-30.95 112.52-32.8 113.69-34.65 115.47-35.65 117.24-36.65 119.89-36.65L119.89-36.65Q123.89-36.65 125.92-34.45 127.94-32.25 129.29-28.35L129.29-28.35 135.84-9.6Q137.24-5.65 136.37-3.08 135.49-0.5 132.09 0L132.09 0Q129.34 0.35 127.32-0.65 125.29-1.65 124.89-3.9L124.89-3.9Q124.59-5.4 124.82-6.4 125.04-7.4 125.24-8L125.24-8Q125.39-8.5 125.27-8.97 125.14-9.45 124.49-9.45L124.49-9.45 115.19-9.45Q114.54-9.45 114.42-8.97 114.29-8.5 114.49-8L114.49-8Q114.69-7.4 114.89-6.4 115.09-5.4 114.84-3.9L114.84-3.9Q114.44-1.65 112.49-0.65 110.54 0.35 107.79 0ZM116.24-16.45L123.54-16.45 120.94-24.6Q120.84-25.1 120.62-25.38 120.39-25.65 119.89-25.65L119.89-25.65Q119.39-25.65 119.17-25.38 118.94-25.1 118.79-24.6L118.79-24.6 116.24-16.45ZM156.29 0L156.29 0Q153.79 0 152.26-1.05 150.74-2.1 150.04-3.83 149.34-5.55 149.24-7.55L149.24-7.55 148.29-7.55 148.29-4.75Q148.29-2.7 147.04-1.35 145.79 0 143.59 0L143.59 0Q141.29 0 140.11-1.35 138.94-2.7 138.94-4.75L138.94-4.75 138.94-33.55Q138.94-35.7 140.09-37.13 141.24-38.55 143.59-38.55L143.59-38.55Q145.94-38.55 147.11-37.13 148.29-35.7 148.29-33.65L148.29-33.65 148.29-18.5 148.49-18.45Q148.99-20.55 149.76-22.3 150.54-24.05 152.09-25.1 153.64-26.15 156.39-26.15L156.39-26.15Q160.64-26.15 162.89-22.68 165.14-19.2 165.14-13.4L165.14-13.4Q165.14-6.75 162.86-3.38 160.59 0 156.29 0ZM148.19-13.8L148.19-13.8Q148.19-13.55 148.21-13.33 148.24-13.1 148.29-12.85L148.29-12.85Q148.54-11.8 149.51-11.28 150.49-10.75 152.59-10.75L152.59-10.75Q155.09-10.75 156.01-11.5 156.94-12.25 156.94-13.8L156.94-13.8Q156.94-15.4 156.04-16.15 155.14-16.9 152.64-16.9L152.64-16.9Q150.49-16.9 149.51-16.38 148.54-15.85 148.29-14.75L148.29-14.75Q148.24-14.55 148.21-14.33 148.19-14.1 148.19-13.8ZM167.19-13L167.19-13Q167.19-16.95 168.76-19.95 170.34-22.95 173.26-24.65 176.19-26.35 180.24-26.35L180.24-26.35Q183.39-26.35 185.91-25.2 188.44-24.05 189.89-22.13 191.34-20.2 191.34-17.9L191.34-17.9Q191.34-15.5 189.94-14.5 188.54-13.5 185.79-13.5L185.79-13.5 175.29-13.5Q175.29-12.2 176.31-11.35 177.34-10.5 179.79-10.5L179.79-10.5Q181.04-10.5 182.11-10.75 183.19-11 184.31-11.23 185.44-11.45 186.84-11.45L186.84-11.45Q188.84-11.45 190.14-10.03 191.44-8.6 191.44-6.1L191.44-6.1Q191.44-3.15 188.41-1.5 185.39 0.15 180.49 0.15L180.49 0.15Q177.04 0.15 174.01-1.2 170.99-2.55 169.09-5.48 167.19-8.4 167.19-13ZM175.44-15.15L183.39-15.15Q184.14-15.15 183.89-15.85L183.89-15.85Q183.69-16.55 182.69-17.3 181.69-18.05 179.79-18.05L179.79-18.05Q177.59-18.05 176.51-17.1 175.44-16.15 175.44-15.15L175.44-15.15ZM198.63 0L198.63 0Q196.28 0 194.98-1.35 193.68-2.7 193.68-4.75L193.68-4.75 193.68-21.15Q193.68-23.3 194.98-24.73 196.28-26.15 198.63-26.15L198.63-26.15Q200.98-26.15 202.23-24.73 203.48-23.3 203.48-21.25L203.48-21.25 203.48-20.2 204.43-20.2Q204.63-22.85 206.43-24.55 208.23-26.25 210.68-26.25L210.68-26.25Q213.13-26.25 214.56-24.75 215.98-23.25 215.98-20.75L215.98-20.75Q215.98-18.4 214.63-16.85 213.28-15.3 211.18-15.3L211.18-15.3Q209.43-15.3 208.26-16.13 207.08-16.95 206.53-18.05L206.53-18.05Q204.93-18.25 204.21-17.73 203.48-17.2 203.48-15.65L203.48-15.65 203.48-4.75Q203.48-2.7 202.23-1.35 200.98 0 198.63 0ZM232.28 0.15L232.28 0.15Q229.63 0.15 227.51-1.05 225.38-2.25 224.18-4.48 222.98-6.7 222.98-9.7L222.98-9.7 222.98-18.5 221.13-18.25Q219.63-18.05 218.48-19.3 217.33-20.55 217.33-22.45L217.33-22.45Q217.33-24.35 218.48-25.58 219.63-26.8 221.13-26.6L221.13-26.6 222.98-26.35 222.93-29.75Q222.88-31.75 224.08-32.93 225.28-34.1 227.58-34.1L227.58-34.1Q229.88-34.1 231.13-32.93 232.38-31.75 232.28-29.75L232.28-29.75 232.18-26.35 234.83-26.7Q237.53-27.1 238.93-25.73 240.33-24.35 240.33-22.45L240.33-22.45Q240.33-20.55 238.96-19.18 237.58-17.8 234.98-18.15L234.98-18.15 232.18-18.5 232.18-11.05Q232.18-10.4 232.63-9.88 233.08-9.35 233.73-9.55L233.73-9.55Q234.48-9.75 235.31-10.4 236.13-11.05 237.43-11.05L237.43-11.05Q239.38-11.05 240.43-9.65 241.48-8.25 241.48-6.2L241.48-6.2Q241.48-4.6 240.36-3.13 239.23-1.65 237.18-0.75 235.13 0.15 232.28 0.15ZM256.33 0.1L256.33 0.1Q250.48 0.1 247-3.38 243.53-6.85 243.53-13.2L243.53-13.2Q243.53-17.1 245.13-20.05 246.73-23 249.6-24.68 252.48-26.35 256.33-26.35L256.33-26.35Q260.63-26.35 263.48-24.68 266.33-23 267.75-20.05 269.18-17.1 269.18-13.2L269.18-13.2Q269.18-6.85 266-3.38 262.83 0.1 256.33 0.1ZM249.48-14.05L249.48-14.05Q249.48-12.5 251.03-11.88 252.58-11.25 256.33-11.25L256.33-11.25Q260.08-11.25 261.63-11.88 263.18-12.5 263.18-14.05L263.18-14.05Q263.18-15.55 261.63-16.15 260.08-16.75 256.33-16.75L256.33-16.75Q252.58-16.75 251.03-16.15 249.48-15.55 249.48-14.05Z" opacity="1" transform="matrix(1,0,0,1,0,0)" fill="#fbfbfb" class="wordmark-text-0" data-fill-palette-color="primary" id="text-0"></path></svg></g></svg></g></svg></g></svg></g><g transform="matrix(1,0,0,1,76.53311999999998,0)"><svg viewBox="0 0 244.43135999999996 22.100369956157245" height="22.100369956157245" width="244.43135999999996"><g><svg xmlns="http://www.w3.org/2000/svg" xmlns:xlink="http://www.w3.org/1999/xlink" version="1.1" x="8" y="0" viewBox="0.0859975939895624 45.473 99.99700321602353 9.67455066406454" enable-background="new 0 0 100 100" xml:space="preserve" id="icon-0" width="228.43135999999996" height="22.100369956157245" class="icon-icon-0" data-fill-palette-color="accent"><path d="M96.873 45.474A6.466 6.466 0 0 1 90.414 51.934 6.47 6.47 0 0 1 83.953 45.474H80.74A6.466 6.466 0 0 1 74.281 51.934 6.47 6.47 0 0 1 67.82 45.474H64.611A6.47 6.47 0 0 1 58.15 51.934 6.47 6.47 0 0 1 51.689 45.481V45.473H48.478A6.47 6.47 0 0 1 42.019 51.933 6.47 6.47 0 0 1 35.558 45.473H32.347A6.47 6.47 0 0 1 25.888 51.933 6.47 6.47 0 0 1 19.427 45.473H16.217A6.47 6.47 0 0 1 9.755 51.933 6.47 6.47 0 0 1 3.296 45.473H0.086A9.667 9.667 0 0 0 17.823 50.802 9.658 9.658 0 0 0 33.953 50.802 9.66 9.66 0 0 0 42.02 55.143 9.65 9.65 0 0 0 50.084 50.802C51.815 53.417 54.78 55.143 58.151 55.143S64.485 53.417 66.217 50.804A9.66 9.66 0 0 0 82.347 50.804 9.668 9.668 0 0 0 100.083 45.473z" fill="#2f76db" data-fill-palette-color="accent"></path></svg></g></svg></g><g><rect width="1.4210854715202004e-14" height="5.1583226784602685" y="15.942047277696975" x="320.9644799999999" fill="#fbfbfb" data-fill-palette-color="secondary"></rect><rect width="1.4210854715202004e-14" height="5.1583226784602685" y="15.942047277696975" x="76.53311999999997" fill="#fbfbfb" data-fill-palette-color="secondary"></rect></g></svg></g><defs></defs></svg><rect width="395.52" height="110.91070538143234" fill="none" stroke="none" visibility="hidden"></rect></g></svg></g></svg>